# xmcd CD database file
#
# Track frame offsets:
#	150
#	22500
#	44617
#
# Disc length: 890 seconds
#
# Revision: 8
# Processed by: cddbd v1.5.2PL0 Copyright (c) Steve Scherf et al.
# Submitted via: CDex 1.70beta2
#
DISCID=17037803
DTITLE=GLAY - Way of Difference
DYEAR=2002
DGENRE=Rock
TTITLE0=Way of Difference
TTITLE1=卒業まで、あと少し
TTITLE2=Way of Difference [Instrumental]
EXTD=YEAR: 2002
EXTT0=
EXTT1=
EXTT2=
PLAYORDER=
